<svg version="1.1" id="Layer_1" xmlns="http://www.w3.org/2000/svg" xmlns:xlink="http://www.w3.org/1999/xlink" x="0px" y="0px"
	 width="100%" viewBox="0 0 290 254" enable-background="new 0 0 290 254" xml:space="preserve">
<path fill="#010101" opacity="1.000000" stroke="none" 
	d="
M178.000000,255.000000 
	C118.666672,255.000000 59.833347,255.000000 1.000016,255.000000 
	C1.000010,170.333344 1.000010,85.666702 1.000005,1.000039 
	C97.666634,1.000026 194.333267,1.000026 290.999939,1.000013 
	C290.999939,85.666626 290.999939,170.333252 290.999969,254.999939 
	C253.500000,255.000000 216.000000,255.000000 178.000000,255.000000 
M189.143951,172.731934 
	C188.546005,174.137360 187.948044,175.542786 186.954346,177.878372 
	C185.048416,173.342285 183.570816,169.884750 182.139496,166.408142 
	C177.636154,155.469635 177.642792,155.464264 166.065201,155.887253 
	C165.783386,155.897552 165.509903,156.135468 164.445175,156.641220 
	C169.692993,166.479797 168.914383,176.711838 164.468796,186.863647 
	C169.174652,186.863647 172.912964,186.863647 177.802032,186.863647 
	C174.170746,180.407822 173.250137,174.181366 175.203415,167.721832 
	C177.816513,172.469757 180.214981,177.194702 181.818207,182.175629 
	C183.174866,186.390549 185.459427,187.743454 189.753967,186.532516 
	C192.529556,179.836365 195.361893,173.003357 198.194214,166.170349 
	C198.651550,166.302383 199.108887,166.434402 199.566208,166.566437 
	C198.824585,173.376083 198.082947,180.185730 197.354248,186.876648 
	C201.148376,186.876648 204.889877,186.876648 209.773483,186.876648 
	C204.001633,176.439590 204.412537,166.289719 209.470306,156.219849 
	C196.004913,154.904388 196.006805,154.905106 191.637085,166.422882 
	C190.932068,168.281189 190.201782,170.129898 189.143951,172.731934 
M86.135422,178.209213 
	C85.973656,179.156998 86.031990,180.221085 85.605232,181.028870 
	C84.658218,182.821426 83.467926,184.485474 81.910995,186.934723 
	C87.307503,186.934723 91.052292,186.934723 94.718513,186.934723 
	C93.909744,180.285156 93.125641,173.838409 92.341537,167.391678 
	C92.844841,167.308197 93.348152,167.224716 93.851456,167.141235 
	C96.620102,173.645203 99.388748,180.149185 102.109299,186.540176 
	C106.342110,187.754776 108.648338,186.417862 110.019028,182.246536 
	C111.819008,176.768707 114.289261,171.511108 116.471260,166.158798 
	C117.009262,166.296768 117.547264,166.434738 118.085258,166.572708 
	C117.229034,173.336365 116.372810,180.100037 115.500702,186.989212 
	C119.230774,186.989212 122.985664,186.989212 127.873611,186.989212 
	C122.238060,176.556366 122.602676,166.320541 127.828949,155.806595 
	C123.860909,155.806595 121.008171,156.105087 118.246231,155.731796 
	C114.715454,155.254578 113.272362,156.791000 112.225273,159.923508 
	C110.281265,165.739227 107.940796,171.422440 105.368393,178.208099 
	C103.370239,173.409164 101.843704,169.763947 100.333519,166.111969 
	C95.724289,154.965866 95.726738,154.964859 84.267792,156.036499 
	C84.893089,163.146042 85.514328,170.209442 86.135422,178.209213 
M231.203323,176.181229 
	C232.257553,179.786560 233.311768,183.391907 234.374512,187.026428 
	C237.159134,187.026428 239.946411,187.026428 244.149063,187.026428 
	C241.641968,181.736649 239.456329,177.125137 237.152893,172.265045 
	C241.141632,169.788818 242.368668,165.852875 240.575882,161.327133 
	C238.795715,156.833328 234.761780,155.792664 230.331390,155.808914 
	C225.200882,155.827713 220.070267,155.813293 213.543716,155.813293 
	C219.540878,166.395691 219.545670,176.642807 213.825058,186.881470 
	C219.159363,186.881470 223.220276,186.881470 227.932526,186.881470 
	C226.650284,182.755661 225.514206,179.100113 224.075043,174.469315 
	C227.120056,174.985611 228.857071,175.280136 231.203323,176.181229 
M51.433468,175.845917 
	C52.968498,183.731827 57.265339,187.852539 63.764824,187.671783 
	C70.506920,187.484283 74.988197,182.795044 75.737862,174.819305 
	C76.032478,171.684814 75.800995,168.503296 75.882980,165.345093 
	C75.912186,164.220474 75.968231,163.030853 76.349884,161.995453 
	C77.035789,160.134583 77.976990,158.367813 79.054153,156.036636 
	C73.862877,156.036636 69.940865,156.036636 64.909065,156.036636 
	C65.985146,158.272400 66.750603,159.940521 67.589371,161.570953 
	C67.977966,162.326309 68.893379,162.997971 68.912659,163.725006 
	C69.022789,167.879898 69.116806,172.051590 68.853630,176.194519 
	C68.663658,179.184921 66.833633,181.668045 63.706993,180.785828 
	C61.625168,180.198425 58.887009,178.024460 58.503338,176.140854 
	C57.689281,172.144257 58.196602,167.873199 58.229713,163.715210 
	C58.234535,163.109665 58.542500,162.472183 58.828480,161.909592 
	C59.743248,160.110031 60.713642,158.338745 61.897633,156.115082 
	C56.539486,156.115082 52.626671,156.115082 49.127666,156.115082 
	C49.862267,162.591156 50.564754,168.784134 51.433468,175.845917 
M142.499969,122.888855 
	C154.884735,122.888855 167.269501,122.888855 180.094940,122.888855 
	C176.019516,109.813820 168.885468,100.472321 156.402847,95.651566 
	C154.716949,95.000481 153.626404,92.930794 152.092316,91.732986 
	C150.115326,90.189400 147.989304,87.784294 145.890030,87.744865 
	C143.778366,87.705208 140.546127,89.655151 139.738480,91.555168 
	C138.565628,94.314308 136.786545,95.042854 134.462112,95.985443 
	C122.380447,100.884727 115.201118,109.995209 111.552017,122.888855 
	C121.917145,122.888855 131.708557,122.888855 142.499969,122.888855 
M150.856186,157.343842 
	C148.035370,156.646744 145.214554,155.949661 142.495087,155.277618 
	C138.473190,166.296326 134.762192,176.463303 130.958847,186.883270 
	C135.446259,186.883270 139.179306,186.883270 144.705078,186.883270 
	C142.813919,184.344421 141.105240,182.960327 140.767578,181.297775 
	C140.515656,180.057449 141.790878,177.467514 142.815048,177.214371 
	C145.277634,176.605698 147.992416,177.017334 151.726852,177.017334 
	C150.554169,180.688278 149.614639,183.629318 148.551559,186.957153 
	C153.231964,186.957153 156.978546,186.957153 161.127060,186.957153 
	C157.686264,177.146530 154.357040,167.653976 150.856186,157.343842 
M154.499649,136.052948 
	C159.322556,136.052948 164.151611,135.900009 168.966736,136.093445 
	C174.421158,136.312531 178.478165,134.743713 179.469543,129.630173 
	C181.762390,128.589630 183.479095,127.810547 185.195801,127.031464 
	C184.988174,126.559135 184.780548,126.086800 184.572922,125.614464 
	C183.929123,125.540138 183.285355,125.401131 182.641525,125.400810 
	C158.527023,125.388611 134.412521,125.388748 110.298012,125.389992 
	C109.466904,125.390030 108.577797,125.245605 107.826347,125.497940 
	C107.372887,125.650208 106.886780,126.429688 106.866592,126.945015 
	C106.846207,127.465233 107.514114,128.504959 107.656990,128.467377 
	C111.825500,127.371002 112.058784,131.366501 114.098061,133.097092 
	C115.935143,134.656097 118.688812,135.859573 121.073448,135.924423 
	C131.875412,136.218170 142.689850,136.052933 154.499649,136.052948 
z"/>
<path fill="#F7F7F7" opacity="1.000000" stroke="none" 
	d="
M189.313568,172.357483 
	C190.201782,170.129898 190.932068,168.281189 191.637085,166.422882 
	C196.006805,154.905106 196.004913,154.904388 209.470306,156.219849 
	C204.412537,166.289719 204.001633,176.439590 209.773483,186.876648 
	C204.889877,186.876648 201.148376,186.876648 197.354248,186.876648 
	C198.082947,180.185730 198.824585,173.376083 199.566208,166.566437 
	C199.108887,166.434402 198.651550,166.302383 198.194214,166.170349 
	C195.361893,173.003357 192.529556,179.836365 189.753967,186.532516 
	C185.459427,187.743454 183.174866,186.390549 181.818207,182.175629 
	C180.214981,177.194702 177.816513,172.469757 175.203415,167.721832 
	C173.250137,174.181366 174.170746,180.407822 177.802032,186.863647 
	C172.912964,186.863647 169.174652,186.863647 164.468796,186.863647 
	C168.914383,176.711838 169.692993,166.479797 164.445175,156.641220 
	C165.509903,156.135468 165.783386,155.897552 166.065201,155.887253 
	C177.642792,155.464264 177.636154,155.469635 182.139496,166.408142 
	C183.570816,169.884750 185.048416,173.342285 186.954346,177.878372 
	C187.948044,175.542786 188.546005,174.137360 189.313568,172.357483 
z"/>
<path fill="#F4F4F4" opacity="1.000000" stroke="none" 
	d="
M86.135498,177.741028 
	C85.514328,170.209442 84.893089,163.146042 84.267792,156.036499 
	C95.726738,154.964859 95.724289,154.965866 100.333519,166.111969 
	C101.843704,169.763947 103.370239,173.409164 105.368393,178.208099 
	C107.940796,171.422440 110.281265,165.739227 112.225273,159.923508 
	C113.272362,156.791000 114.715454,155.254578 118.246231,155.731796 
	C121.008171,156.105087 123.860909,155.806595 127.828949,155.806595 
	C122.602676,166.320541 122.238060,176.556366 127.873611,186.989212 
	C122.985664,186.989212 119.230774,186.989212 115.500702,186.989212 
	C116.372810,180.100037 117.229034,173.336365 118.085258,166.572708 
	C117.547264,166.434738 117.009262,166.296768 116.471260,166.158798 
	C114.289261,171.511108 111.819008,176.768707 110.019028,182.246536 
	C108.648338,186.417862 106.342110,187.754776 102.109299,186.540176 
	C99.388748,180.149185 96.620102,173.645203 93.851456,167.141235 
	C93.348152,167.224716 92.844841,167.308197 92.341537,167.391678 
	C93.125641,173.838409 93.909744,180.285156 94.718513,186.934723 
	C91.052292,186.934723 87.307503,186.934723 81.910995,186.934723 
	C83.467926,184.485474 84.658218,182.821426 85.605232,181.028870 
	C86.031990,180.221085 85.973656,179.156998 86.135498,177.741028 
z"/>
<path fill="#F5F5F5" opacity="1.000000" stroke="none" 
	d="
M230.898697,175.877930 
	C228.857071,175.280136 227.120056,174.985611 224.075043,174.469315 
	C225.514206,179.100113 226.650284,182.755661 227.932526,186.881470 
	C223.220276,186.881470 219.159363,186.881470 213.825058,186.881470 
	C219.545670,176.642807 219.540878,166.395691 213.543716,155.813293 
	C220.070267,155.813293 225.200882,155.827713 230.331390,155.808914 
	C234.761780,155.792664 238.795715,156.833328 240.575882,161.327133 
	C242.368668,165.852875 241.141632,169.788818 237.152893,172.265045 
	C239.456329,177.125137 241.641968,181.736649 244.149063,187.026428 
	C239.946411,187.026428 237.159134,187.026428 234.374512,187.026428 
	C233.311768,183.391907 232.257553,179.786560 230.898697,175.877930 
M225.561172,168.952682 
	C228.750153,168.659683 233.628296,170.503204 233.734726,165.353302 
	C233.830673,160.710724 229.236237,161.667130 226.048569,161.563705 
	C225.772446,161.554764 225.486984,161.833603 224.901062,162.136154 
	C224.901062,164.101379 224.901062,166.216064 225.561172,168.952682 
z"/>
<path fill="#F4F4F4" opacity="1.000000" stroke="none" 
	d="
M51.350357,175.411499 
	C50.564754,168.784134 49.862267,162.591156 49.127666,156.115082 
	C52.626671,156.115082 56.539486,156.115082 61.897633,156.115082 
	C60.713642,158.338745 59.743248,160.110031 58.828480,161.909592 
	C58.542500,162.472183 58.234535,163.109665 58.229713,163.715210 
	C58.196602,167.873199 57.689281,172.144257 58.503338,176.140854 
	C58.887009,178.024460 61.625168,180.198425 63.706993,180.785828 
	C66.833633,181.668045 68.663658,179.184921 68.853630,176.194519 
	C69.116806,172.051590 69.022789,167.879898 68.912659,163.725006 
	C68.893379,162.997971 67.977966,162.326309 67.589371,161.570953 
	C66.750603,159.940521 65.985146,158.272400 64.909065,156.036636 
	C69.940865,156.036636 73.862877,156.036636 79.054153,156.036636 
	C77.976990,158.367813 77.035789,160.134583 76.349884,161.995453 
	C75.968231,163.030853 75.912186,164.220474 75.882980,165.345093 
	C75.800995,168.503296 76.032478,171.684814 75.737862,174.819305 
	C74.988197,182.795044 70.506920,187.484283 63.764824,187.671783 
	C57.265339,187.852539 52.968498,183.731827 51.350357,175.411499 
z"/>
<path fill="#EAEAEA" opacity="1.000000" stroke="none" 
	d="
M141.999969,122.888855 
	C131.708557,122.888855 121.917145,122.888855 111.552017,122.888855 
	C115.201118,109.995209 122.380447,100.884727 134.462112,95.985443 
	C136.786545,95.042854 138.565628,94.314308 139.738480,91.555168 
	C140.546127,89.655151 143.778366,87.705208 145.890030,87.744865 
	C147.989304,87.784294 150.115326,90.189400 152.092316,91.732986 
	C153.626404,92.930794 154.716949,95.000481 156.402847,95.651566 
	C168.885468,100.472321 176.019516,109.813820 180.094940,122.888855 
	C167.269501,122.888855 154.884735,122.888855 141.999969,122.888855 
M153.311905,97.874641 
	C137.387955,93.737556 118.758881,104.674210 116.368225,119.544861 
	C136.043854,119.544861 155.721664,119.544861 175.792450,119.544861 
	C171.663147,108.842339 164.732605,101.597290 153.311905,97.874641 
z"/>
<path fill="#F8F8F8" opacity="1.000000" stroke="none" 
	d="
M150.942001,157.752625 
	C154.357040,167.653976 157.686264,177.146530 161.127060,186.957153 
	C156.978546,186.957153 153.231964,186.957153 148.551559,186.957153 
	C149.614639,183.629318 150.554169,180.688278 151.726852,177.017334 
	C147.992416,177.017334 145.277634,176.605698 142.815048,177.214371 
	C141.790878,177.467514 140.515656,180.057449 140.767578,181.297775 
	C141.105240,182.960327 142.813919,184.344421 144.705078,186.883270 
	C139.179306,186.883270 135.446259,186.883270 130.958847,186.883270 
	C134.762192,176.463303 138.473190,166.296326 142.495087,155.277618 
	C145.214554,155.949661 148.035370,156.646744 150.942001,157.752625 
M147.157181,171.892044 
	C147.704102,171.488052 148.782440,170.931290 148.716934,170.703400 
	C147.938568,167.996124 146.989716,165.337875 145.744400,161.658752 
	C144.547791,165.662033 143.712692,168.455872 142.780640,171.574066 
	C144.182114,171.701584 145.260666,171.799713 147.157181,171.892044 
z"/>
<path fill="#E3E3E3" opacity="1.000000" stroke="none" 
	d="
M153.999725,136.052948 
	C142.689850,136.052933 131.875412,136.218170 121.073448,135.924423 
	C118.688812,135.859573 115.935143,134.656097 114.098061,133.097092 
	C112.058784,131.366501 111.825500,127.371002 107.656990,128.467377 
	C107.514114,128.504959 106.846207,127.465233 106.866592,126.945015 
	C106.886780,126.429688 107.372887,125.650208 107.826347,125.497940 
	C108.577797,125.245605 109.466904,125.390030 110.298012,125.389992 
	C134.412521,125.388748 158.527023,125.388611 182.641525,125.400810 
	C183.285355,125.401131 183.929123,125.540138 184.572922,125.614464 
	C184.780548,126.086800 184.988174,126.559135 185.195801,127.031464 
	C183.479095,127.810547 181.762390,128.589630 179.469543,129.630173 
	C178.478165,134.743713 174.421158,136.312531 168.966736,136.093445 
	C164.151611,135.900009 159.322556,136.052948 153.999725,136.052948 
M138.500320,128.497772 
	C130.775009,128.497772 123.049706,128.497772 115.324394,128.497772 
	C115.152695,129.012573 114.980988,129.527374 114.809288,130.042175 
	C116.613289,131.026978 118.406532,132.843582 120.222969,132.867096 
	C137.170807,133.086319 154.123871,133.089752 171.071564,132.865189 
	C172.899307,132.840973 174.702667,130.976013 176.517334,129.964890 
	C176.273071,129.475891 176.028793,128.986877 175.784515,128.497879 
	C163.689774,128.497879 151.595047,128.497879 138.500320,128.497772 
z"/>
<path fill="#101010" opacity="1.000000" stroke="none" 
	d="
M225.231110,168.641724 
	C224.901062,166.216064 224.901062,164.101379 224.901062,162.136154 
	C225.486984,161.833603 225.772446,161.554764 226.048569,161.563705 
	C229.236237,161.667130 233.830673,160.710724 233.734726,165.353302 
	C233.628296,170.503204 228.750153,168.659683 225.231110,168.641724 
z"/>
<path fill="#080808" opacity="1.000000" stroke="none" 
	d="
M153.716614,97.955994 
	C164.732605,101.597290 171.663147,108.842339 175.792450,119.544861 
	C155.721664,119.544861 136.043854,119.544861 116.368225,119.544861 
	C118.758881,104.674210 137.387955,93.737556 153.716614,97.955994 
M162.949707,107.504280 
	C158.565552,105.023941 154.181396,102.543602 149.797226,100.063263 
	C149.354599,100.801704 148.911957,101.540146 148.469330,102.278587 
	C152.062729,104.322159 155.828613,106.119049 159.201599,108.477798 
	C162.661118,110.897057 165.736343,113.865829 168.979752,116.594093 
	C169.393295,116.096497 169.806839,115.598892 170.220383,115.101295 
	C167.979462,112.723961 165.738556,110.346626 162.949707,107.504280 
z"/>
<path fill="#1F1F1F" opacity="1.000000" stroke="none" 
	d="
M146.748199,171.894958 
	C145.260666,171.799713 144.182114,171.701584 142.780640,171.574066 
	C143.712692,168.455872 144.547791,165.662033 145.744400,161.658752 
	C146.989716,165.337875 147.938568,167.996124 148.716934,170.703400 
	C148.782440,170.931290 147.704102,171.488052 146.748199,171.894958 
z"/>
<path fill="#1B1B1B" opacity="1.000000" stroke="none" 
	d="
M139.000305,128.497833 
	C151.595047,128.497879 163.689774,128.497879 175.784515,128.497879 
	C176.028793,128.986877 176.273071,129.475891 176.517334,129.964890 
	C174.702667,130.976013 172.899307,132.840973 171.071564,132.865189 
	C154.123871,133.089752 137.170807,133.086319 120.222969,132.867096 
	C118.406532,132.843582 116.613289,131.026978 114.809288,130.042175 
	C114.980988,129.527374 115.152695,129.012573 115.324394,128.497772 
	C123.049706,128.497772 130.775009,128.497772 139.000305,128.497833 
z"/>
<path fill="#EBEBEB" opacity="1.000000" stroke="none" 
	d="
M163.223679,107.736786 
	C165.738556,110.346626 167.979462,112.723961 170.220383,115.101295 
	C169.806839,115.598892 169.393295,116.096497 168.979752,116.594093 
	C165.736343,113.865829 162.661118,110.897057 159.201599,108.477798 
	C155.828613,106.119049 152.062729,104.322159 148.469330,102.278587 
	C148.911957,101.540146 149.354599,100.801704 149.797226,100.063263 
	C154.181396,102.543602 158.565552,105.023941 163.223679,107.736786 
z"/>
</svg>